<mxfile host="app.diagrams.net" modified="2022-10-26T05:35:04.739Z" agent="5.0 (Macintosh; Intel Mac OS X 10_15_7) AppleWebKit/537.36 (KHTML, like Gecko) Chrome/106.0.0.0 Safari/537.36" etag="kmMYBkPk0KRtax44tj8I" version="20.4.0" type="github">
  <diagram id="S7sbqIsiSsgJ-AlEYfG4" name="第 1 页">
    <mxGraphModel dx="1299" dy="869" grid="0" gridSize="10" guides="0" tooltips="0" connect="1" arrows="1" fold="1" page="1" pageScale="1" pageWidth="1100" pageHeight="850" math="0" shadow="0">
      <root>
        <mxCell id="0" />
        <mxCell id="1" parent="0" />
        <mxCell id="HXpb4lopX8qzr8Cd9YFV-1" value="" style="endArrow=none;html=1;rounded=0;fontSize=15;fillColor=#dae8fc;strokeColor=#6c8ebf;strokeWidth=3;" edge="1" parent="1">
          <mxGeometry width="50" height="50" relative="1" as="geometry">
            <mxPoint x="240" y="600" as="sourcePoint" />
            <mxPoint x="240" y="150" as="targetPoint" />
          </mxGeometry>
        </mxCell>
        <mxCell id="HXpb4lopX8qzr8Cd9YFV-2" value="" style="endArrow=none;html=1;rounded=0;fontSize=15;fillColor=#d5e8d4;strokeColor=#82b366;strokeWidth=3;" edge="1" parent="1">
          <mxGeometry width="50" height="50" relative="1" as="geometry">
            <mxPoint x="440" y="600" as="sourcePoint" />
            <mxPoint x="440" y="150" as="targetPoint" />
          </mxGeometry>
        </mxCell>
        <mxCell id="HXpb4lopX8qzr8Cd9YFV-3" value="&lt;b&gt;Client&lt;/b&gt;" style="text;html=1;strokeColor=none;fillColor=none;align=center;verticalAlign=middle;whiteSpace=wrap;rounded=0;fontSize=15;" vertex="1" parent="1">
          <mxGeometry x="210" y="110" width="60" height="30" as="geometry" />
        </mxCell>
        <mxCell id="HXpb4lopX8qzr8Cd9YFV-4" value="&lt;b&gt;Server&lt;/b&gt;" style="text;html=1;strokeColor=none;fillColor=none;align=center;verticalAlign=middle;whiteSpace=wrap;rounded=0;fontSize=15;" vertex="1" parent="1">
          <mxGeometry x="410" y="110" width="60" height="30" as="geometry" />
        </mxCell>
        <mxCell id="HXpb4lopX8qzr8Cd9YFV-6" style="edgeStyle=none;rounded=0;orthogonalLoop=1;jettySize=auto;html=1;strokeWidth=1;fontSize=15;" edge="1" parent="1">
          <mxGeometry relative="1" as="geometry">
            <mxPoint x="440" y="260" as="targetPoint" />
            <mxPoint x="240" y="210" as="sourcePoint" />
          </mxGeometry>
        </mxCell>
        <mxCell id="HXpb4lopX8qzr8Cd9YFV-86" value="&lt;b&gt;&lt;font color=&quot;#1a1a1a&quot;&gt;1&lt;/font&gt;&lt;/b&gt;" style="edgeLabel;html=1;align=center;verticalAlign=middle;resizable=0;points=[];fontSize=15;fontColor=#99CCFF;" vertex="1" connectable="0" parent="HXpb4lopX8qzr8Cd9YFV-6">
          <mxGeometry x="-0.1164" relative="1" as="geometry">
            <mxPoint as="offset" />
          </mxGeometry>
        </mxCell>
        <mxCell id="HXpb4lopX8qzr8Cd9YFV-5" value="" style="shape=curlyBracket;whiteSpace=wrap;html=1;rounded=1;fontSize=15;strokeWidth=2;fillColor=#ffe6cc;strokeColor=#d79b00;" vertex="1" parent="1">
          <mxGeometry x="220" y="150" width="20" height="60" as="geometry" />
        </mxCell>
        <mxCell id="HXpb4lopX8qzr8Cd9YFV-7" value="Init State" style="text;html=1;strokeColor=none;fillColor=none;align=center;verticalAlign=middle;whiteSpace=wrap;rounded=0;fontSize=15;" vertex="1" parent="1">
          <mxGeometry x="140" y="162.5" width="90" height="35" as="geometry" />
        </mxCell>
        <mxCell id="HXpb4lopX8qzr8Cd9YFV-8" value="" style="shape=curlyBracket;whiteSpace=wrap;html=1;rounded=1;flipH=1;strokeWidth=2;fontSize=15;fillColor=#ffe6cc;strokeColor=#d79b00;" vertex="1" parent="1">
          <mxGeometry x="440" y="150" width="20" height="110" as="geometry" />
        </mxCell>
        <mxCell id="HXpb4lopX8qzr8Cd9YFV-9" value="Init State" style="text;html=1;strokeColor=none;fillColor=none;align=center;verticalAlign=middle;whiteSpace=wrap;rounded=0;fontSize=15;" vertex="1" parent="1">
          <mxGeometry x="460" y="187.5" width="90" height="35" as="geometry" />
        </mxCell>
        <mxCell id="HXpb4lopX8qzr8Cd9YFV-10" style="edgeStyle=none;rounded=0;orthogonalLoop=1;jettySize=auto;html=1;strokeWidth=1;fontSize=15;" edge="1" parent="1">
          <mxGeometry relative="1" as="geometry">
            <mxPoint x="240" y="300" as="targetPoint" />
            <mxPoint x="440" y="260" as="sourcePoint" />
          </mxGeometry>
        </mxCell>
        <mxCell id="HXpb4lopX8qzr8Cd9YFV-87" value="&lt;b&gt;2&lt;/b&gt;" style="edgeLabel;html=1;align=center;verticalAlign=middle;resizable=0;points=[];fontSize=15;fontColor=#1A1A1A;" vertex="1" connectable="0" parent="HXpb4lopX8qzr8Cd9YFV-10">
          <mxGeometry x="0.0783" y="-3" relative="1" as="geometry">
            <mxPoint x="-1" as="offset" />
          </mxGeometry>
        </mxCell>
        <mxCell id="HXpb4lopX8qzr8Cd9YFV-11" style="edgeStyle=none;rounded=0;orthogonalLoop=1;jettySize=auto;html=1;strokeWidth=1;fontSize=15;" edge="1" parent="1">
          <mxGeometry relative="1" as="geometry">
            <mxPoint x="440" y="350" as="targetPoint" />
            <mxPoint x="240" y="300" as="sourcePoint" />
          </mxGeometry>
        </mxCell>
        <mxCell id="HXpb4lopX8qzr8Cd9YFV-88" value="&lt;b&gt;3&lt;/b&gt;" style="edgeLabel;html=1;align=center;verticalAlign=middle;resizable=0;points=[];fontSize=15;fontColor=#1A1A1A;" vertex="1" connectable="0" parent="HXpb4lopX8qzr8Cd9YFV-11">
          <mxGeometry x="-0.0037" y="1" relative="1" as="geometry">
            <mxPoint x="-10" y="-4" as="offset" />
          </mxGeometry>
        </mxCell>
        <mxCell id="HXpb4lopX8qzr8Cd9YFV-12" style="edgeStyle=none;rounded=0;orthogonalLoop=1;jettySize=auto;html=1;strokeWidth=1;fontSize=15;" edge="1" parent="1">
          <mxGeometry relative="1" as="geometry">
            <mxPoint x="240" y="480" as="targetPoint" />
            <mxPoint x="440" y="440" as="sourcePoint" />
          </mxGeometry>
        </mxCell>
        <mxCell id="HXpb4lopX8qzr8Cd9YFV-13" value="" style="shape=curlyBracket;whiteSpace=wrap;html=1;rounded=1;fontSize=15;strokeWidth=2;fillColor=#e1d5e7;strokeColor=#9673a6;" vertex="1" parent="1">
          <mxGeometry x="220" y="210" width="20" height="270" as="geometry" />
        </mxCell>
        <mxCell id="HXpb4lopX8qzr8Cd9YFV-14" value="Continue State" style="text;html=1;strokeColor=none;fillColor=none;align=center;verticalAlign=middle;whiteSpace=wrap;rounded=0;fontSize=15;" vertex="1" parent="1">
          <mxGeometry x="110" y="330" width="110" height="32.5" as="geometry" />
        </mxCell>
        <mxCell id="HXpb4lopX8qzr8Cd9YFV-15" style="edgeStyle=none;rounded=0;orthogonalLoop=1;jettySize=auto;html=1;strokeWidth=1;fontSize=15;" edge="1" parent="1">
          <mxGeometry relative="1" as="geometry">
            <mxPoint x="440" y="440" as="targetPoint" />
            <mxPoint x="240" y="390" as="sourcePoint" />
          </mxGeometry>
        </mxCell>
        <mxCell id="HXpb4lopX8qzr8Cd9YFV-17" value="" style="shape=curlyBracket;whiteSpace=wrap;html=1;rounded=1;flipH=1;strokeWidth=2;fontSize=15;fillColor=#e1d5e7;strokeColor=#9673a6;" vertex="1" parent="1">
          <mxGeometry x="440" y="260" width="20" height="180" as="geometry" />
        </mxCell>
        <mxCell id="HXpb4lopX8qzr8Cd9YFV-18" value="Continue State" style="text;html=1;strokeColor=none;fillColor=none;align=center;verticalAlign=middle;whiteSpace=wrap;rounded=0;fontSize=15;" vertex="1" parent="1">
          <mxGeometry x="470" y="333.75" width="110" height="32.5" as="geometry" />
        </mxCell>
        <mxCell id="HXpb4lopX8qzr8Cd9YFV-19" value="" style="shape=curlyBracket;whiteSpace=wrap;html=1;rounded=1;fontSize=15;strokeWidth=2;fillColor=#fad9d5;strokeColor=#ae4132;" vertex="1" parent="1">
          <mxGeometry x="220" y="480" width="20" height="120" as="geometry" />
        </mxCell>
        <mxCell id="HXpb4lopX8qzr8Cd9YFV-20" value="Complete" style="text;html=1;strokeColor=none;fillColor=none;align=center;verticalAlign=middle;whiteSpace=wrap;rounded=0;fontSize=15;" vertex="1" parent="1">
          <mxGeometry x="110" y="523.75" width="110" height="32.5" as="geometry" />
        </mxCell>
        <mxCell id="HXpb4lopX8qzr8Cd9YFV-21" value="" style="shape=curlyBracket;whiteSpace=wrap;html=1;rounded=1;flipH=1;strokeWidth=2;fontSize=15;fillColor=#fad9d5;strokeColor=#ae4132;" vertex="1" parent="1">
          <mxGeometry x="440" y="440" width="20" height="160" as="geometry" />
        </mxCell>
        <mxCell id="HXpb4lopX8qzr8Cd9YFV-22" value="Complete" style="text;html=1;strokeColor=none;fillColor=none;align=center;verticalAlign=middle;whiteSpace=wrap;rounded=0;fontSize=15;" vertex="1" parent="1">
          <mxGeometry x="470" y="503.75" width="110" height="32.5" as="geometry" />
        </mxCell>
        <mxCell id="HXpb4lopX8qzr8Cd9YFV-24" style="edgeStyle=none;rounded=0;orthogonalLoop=1;jettySize=auto;html=1;strokeWidth=2;fontSize=15;startArrow=classic;startFill=1;fillColor=#d0cee2;strokeColor=#56517e;" edge="1" parent="1">
          <mxGeometry relative="1" as="geometry">
            <mxPoint x="240" y="540" as="targetPoint" />
            <mxPoint x="440" y="540" as="sourcePoint" />
          </mxGeometry>
        </mxCell>
        <mxCell id="HXpb4lopX8qzr8Cd9YFV-25" value="DataFlow" style="text;html=1;strokeColor=none;fillColor=none;align=center;verticalAlign=middle;whiteSpace=wrap;rounded=0;strokeWidth=2;fontSize=15;" vertex="1" parent="1">
          <mxGeometry x="310" y="536.25" width="60" height="30" as="geometry" />
        </mxCell>
        <mxCell id="HXpb4lopX8qzr8Cd9YFV-27" style="edgeStyle=none;rounded=0;orthogonalLoop=1;jettySize=auto;html=1;strokeWidth=1;fontSize=15;" edge="1" parent="1">
          <mxGeometry relative="1" as="geometry">
            <mxPoint x="240" y="390" as="targetPoint" />
            <mxPoint x="440" y="350" as="sourcePoint" />
          </mxGeometry>
        </mxCell>
        <mxCell id="HXpb4lopX8qzr8Cd9YFV-89" value="&lt;b&gt;4&lt;/b&gt;" style="edgeLabel;html=1;align=center;verticalAlign=middle;resizable=0;points=[];fontSize=15;fontColor=#1A1A1A;" vertex="1" connectable="0" parent="HXpb4lopX8qzr8Cd9YFV-27">
          <mxGeometry x="0.0206" relative="1" as="geometry">
            <mxPoint x="-8" y="6" as="offset" />
          </mxGeometry>
        </mxCell>
        <mxCell id="HXpb4lopX8qzr8Cd9YFV-28" value="" style="endArrow=none;html=1;rounded=0;fontSize=15;fillColor=#dae8fc;strokeColor=#6c8ebf;strokeWidth=3;" edge="1" parent="1">
          <mxGeometry width="50" height="50" relative="1" as="geometry">
            <mxPoint x="1252" y="836" as="sourcePoint" />
            <mxPoint x="1252" y="116" as="targetPoint" />
          </mxGeometry>
        </mxCell>
        <mxCell id="HXpb4lopX8qzr8Cd9YFV-29" value="" style="endArrow=none;html=1;rounded=0;fontSize=15;fillColor=#d5e8d4;strokeColor=#82b366;strokeWidth=3;" edge="1" parent="1">
          <mxGeometry width="50" height="50" relative="1" as="geometry">
            <mxPoint x="1452" y="836" as="sourcePoint" />
            <mxPoint x="1452" y="116" as="targetPoint" />
          </mxGeometry>
        </mxCell>
        <mxCell id="HXpb4lopX8qzr8Cd9YFV-30" value="&lt;b&gt;Client&lt;/b&gt;" style="text;html=1;strokeColor=none;fillColor=none;align=center;verticalAlign=middle;whiteSpace=wrap;rounded=0;fontSize=15;" vertex="1" parent="1">
          <mxGeometry x="1222" y="76" width="60" height="30" as="geometry" />
        </mxCell>
        <mxCell id="HXpb4lopX8qzr8Cd9YFV-31" value="&lt;b&gt;Mesh&lt;/b&gt;" style="text;html=1;strokeColor=none;fillColor=none;align=center;verticalAlign=middle;whiteSpace=wrap;rounded=0;fontSize=15;" vertex="1" parent="1">
          <mxGeometry x="1422" y="76" width="60" height="30" as="geometry" />
        </mxCell>
        <mxCell id="HXpb4lopX8qzr8Cd9YFV-32" style="edgeStyle=none;rounded=0;orthogonalLoop=1;jettySize=auto;html=1;strokeWidth=1;fontSize=15;" edge="1" parent="1">
          <mxGeometry relative="1" as="geometry">
            <mxPoint x="1452" y="226" as="targetPoint" />
            <mxPoint x="1252" y="176" as="sourcePoint" />
          </mxGeometry>
        </mxCell>
        <mxCell id="HXpb4lopX8qzr8Cd9YFV-92" value="&lt;b&gt;1&lt;/b&gt;" style="edgeLabel;html=1;align=center;verticalAlign=middle;resizable=0;points=[];fontSize=15;fontColor=#1A1A1A;" vertex="1" connectable="0" parent="HXpb4lopX8qzr8Cd9YFV-32">
          <mxGeometry x="-0.0483" y="2" relative="1" as="geometry">
            <mxPoint as="offset" />
          </mxGeometry>
        </mxCell>
        <mxCell id="HXpb4lopX8qzr8Cd9YFV-33" value="" style="shape=curlyBracket;whiteSpace=wrap;html=1;rounded=1;fontSize=15;strokeWidth=2;fillColor=#ffe6cc;strokeColor=#d79b00;" vertex="1" parent="1">
          <mxGeometry x="1232" y="116" width="20" height="60" as="geometry" />
        </mxCell>
        <mxCell id="HXpb4lopX8qzr8Cd9YFV-34" value="Init State" style="text;html=1;strokeColor=none;fillColor=none;align=center;verticalAlign=middle;whiteSpace=wrap;rounded=0;fontSize=15;" vertex="1" parent="1">
          <mxGeometry x="1152" y="128.5" width="90" height="35" as="geometry" />
        </mxCell>
        <mxCell id="HXpb4lopX8qzr8Cd9YFV-35" value="" style="shape=curlyBracket;whiteSpace=wrap;html=1;rounded=1;flipH=1;strokeWidth=2;fontSize=15;fillColor=#ffe6cc;strokeColor=#d79b00;" vertex="1" parent="1">
          <mxGeometry x="1452" y="116" width="20" height="110" as="geometry" />
        </mxCell>
        <mxCell id="HXpb4lopX8qzr8Cd9YFV-36" value="Init State(S)" style="text;html=1;strokeColor=none;fillColor=none;align=center;verticalAlign=middle;whiteSpace=wrap;rounded=0;fontSize=15;" vertex="1" parent="1">
          <mxGeometry x="1472" y="153.5" width="90" height="35" as="geometry" />
        </mxCell>
        <mxCell id="HXpb4lopX8qzr8Cd9YFV-37" style="edgeStyle=none;rounded=0;orthogonalLoop=1;jettySize=auto;html=1;strokeWidth=1;fontSize=15;" edge="1" parent="1">
          <mxGeometry relative="1" as="geometry">
            <mxPoint x="1252" y="266" as="targetPoint" />
            <mxPoint x="1452" y="226" as="sourcePoint" />
          </mxGeometry>
        </mxCell>
        <mxCell id="HXpb4lopX8qzr8Cd9YFV-38" style="edgeStyle=none;rounded=0;orthogonalLoop=1;jettySize=auto;html=1;strokeWidth=1;fontSize=15;" edge="1" parent="1">
          <mxGeometry relative="1" as="geometry">
            <mxPoint x="1452" y="316" as="targetPoint" />
            <mxPoint x="1252" y="266" as="sourcePoint" />
          </mxGeometry>
        </mxCell>
        <mxCell id="HXpb4lopX8qzr8Cd9YFV-40" value="" style="shape=curlyBracket;whiteSpace=wrap;html=1;rounded=1;fontSize=15;strokeWidth=2;fillColor=#e1d5e7;strokeColor=#9673a6;" vertex="1" parent="1">
          <mxGeometry x="1232" y="176" width="20" height="580" as="geometry" />
        </mxCell>
        <mxCell id="HXpb4lopX8qzr8Cd9YFV-41" value="Continue State" style="text;html=1;strokeColor=none;fillColor=none;align=center;verticalAlign=middle;whiteSpace=wrap;rounded=0;fontSize=15;" vertex="1" parent="1">
          <mxGeometry x="740" y="468.75" width="110" height="32.5" as="geometry" />
        </mxCell>
        <mxCell id="HXpb4lopX8qzr8Cd9YFV-42" style="edgeStyle=none;rounded=0;orthogonalLoop=1;jettySize=auto;html=1;strokeWidth=1;fontSize=15;" edge="1" parent="1">
          <mxGeometry relative="1" as="geometry">
            <mxPoint x="1452" y="406" as="targetPoint" />
            <mxPoint x="1252" y="356" as="sourcePoint" />
          </mxGeometry>
        </mxCell>
        <mxCell id="HXpb4lopX8qzr8Cd9YFV-43" value="" style="shape=curlyBracket;whiteSpace=wrap;html=1;rounded=1;flipH=1;strokeWidth=2;fontSize=15;fillColor=#e1d5e7;strokeColor=#9673a6;" vertex="1" parent="1">
          <mxGeometry x="1452" y="226" width="20" height="180" as="geometry" />
        </mxCell>
        <mxCell id="HXpb4lopX8qzr8Cd9YFV-44" value="Continue State(S)" style="text;html=1;strokeColor=none;fillColor=none;align=center;verticalAlign=middle;whiteSpace=wrap;rounded=0;fontSize=15;" vertex="1" parent="1">
          <mxGeometry x="1482" y="299.75" width="130" height="36.25" as="geometry" />
        </mxCell>
        <mxCell id="HXpb4lopX8qzr8Cd9YFV-46" value="Complete" style="text;html=1;strokeColor=none;fillColor=none;align=center;verticalAlign=middle;whiteSpace=wrap;rounded=0;fontSize=15;" vertex="1" parent="1">
          <mxGeometry x="1130" y="779" width="110" height="32.5" as="geometry" />
        </mxCell>
        <mxCell id="HXpb4lopX8qzr8Cd9YFV-51" style="edgeStyle=none;rounded=0;orthogonalLoop=1;jettySize=auto;html=1;strokeWidth=1;fontSize=15;" edge="1" parent="1">
          <mxGeometry relative="1" as="geometry">
            <mxPoint x="1252" y="356" as="targetPoint" />
            <mxPoint x="1452" y="316" as="sourcePoint" />
          </mxGeometry>
        </mxCell>
        <mxCell id="HXpb4lopX8qzr8Cd9YFV-52" value="" style="endArrow=none;html=1;rounded=0;fontSize=15;fillColor=#fad7ac;strokeColor=#b46504;strokeWidth=3;" edge="1" parent="1">
          <mxGeometry width="50" height="50" relative="1" as="geometry">
            <mxPoint x="1652" y="836" as="sourcePoint" />
            <mxPoint x="1652" y="116" as="targetPoint" />
          </mxGeometry>
        </mxCell>
        <mxCell id="HXpb4lopX8qzr8Cd9YFV-53" value="&lt;b&gt;Server&lt;/b&gt;" style="text;html=1;strokeColor=none;fillColor=none;align=center;verticalAlign=middle;whiteSpace=wrap;rounded=0;fontSize=15;" vertex="1" parent="1">
          <mxGeometry x="1642" y="76" width="60" height="30" as="geometry" />
        </mxCell>
        <mxCell id="HXpb4lopX8qzr8Cd9YFV-56" style="edgeStyle=none;rounded=0;orthogonalLoop=1;jettySize=auto;html=1;strokeWidth=1;fontSize=15;" edge="1" parent="1">
          <mxGeometry relative="1" as="geometry">
            <mxPoint x="1652" y="507.25" as="targetPoint" />
            <mxPoint x="1452" y="457.25" as="sourcePoint" />
          </mxGeometry>
        </mxCell>
        <mxCell id="HXpb4lopX8qzr8Cd9YFV-57" style="edgeStyle=none;rounded=0;orthogonalLoop=1;jettySize=auto;html=1;strokeWidth=1;fontSize=15;" edge="1" parent="1">
          <mxGeometry relative="1" as="geometry">
            <mxPoint x="1452" y="546" as="targetPoint" />
            <mxPoint x="1652" y="506" as="sourcePoint" />
          </mxGeometry>
        </mxCell>
        <mxCell id="HXpb4lopX8qzr8Cd9YFV-60" style="edgeStyle=none;rounded=0;orthogonalLoop=1;jettySize=auto;html=1;strokeWidth=1;fontSize=15;" edge="1" parent="1">
          <mxGeometry relative="1" as="geometry">
            <mxPoint x="1652" y="596" as="targetPoint" />
            <mxPoint x="1452" y="546" as="sourcePoint" />
          </mxGeometry>
        </mxCell>
        <mxCell id="HXpb4lopX8qzr8Cd9YFV-62" style="edgeStyle=none;rounded=0;orthogonalLoop=1;jettySize=auto;html=1;strokeWidth=1;fontSize=15;" edge="1" parent="1">
          <mxGeometry relative="1" as="geometry">
            <mxPoint x="1452" y="636" as="targetPoint" />
            <mxPoint x="1652" y="596" as="sourcePoint" />
          </mxGeometry>
        </mxCell>
        <mxCell id="HXpb4lopX8qzr8Cd9YFV-64" style="edgeStyle=none;rounded=0;orthogonalLoop=1;jettySize=auto;html=1;strokeWidth=1;fontSize=15;" edge="1" parent="1">
          <mxGeometry relative="1" as="geometry">
            <mxPoint x="1652" y="676" as="targetPoint" />
            <mxPoint x="1452" y="636" as="sourcePoint" />
          </mxGeometry>
        </mxCell>
        <mxCell id="HXpb4lopX8qzr8Cd9YFV-65" style="edgeStyle=none;rounded=0;orthogonalLoop=1;jettySize=auto;html=1;strokeWidth=1;fontSize=15;" edge="1" parent="1">
          <mxGeometry relative="1" as="geometry">
            <mxPoint x="1452" y="716" as="targetPoint" />
            <mxPoint x="1652" y="676" as="sourcePoint" />
          </mxGeometry>
        </mxCell>
        <mxCell id="HXpb4lopX8qzr8Cd9YFV-66" style="edgeStyle=none;rounded=0;orthogonalLoop=1;jettySize=auto;html=1;strokeWidth=1;fontSize=15;" edge="1" parent="1">
          <mxGeometry relative="1" as="geometry">
            <mxPoint x="1252" y="756" as="targetPoint" />
            <mxPoint x="1452" y="716" as="sourcePoint" />
          </mxGeometry>
        </mxCell>
        <mxCell id="HXpb4lopX8qzr8Cd9YFV-67" value="" style="shape=curlyBracket;whiteSpace=wrap;html=1;rounded=1;fontSize=15;strokeWidth=2;fillColor=#fad9d5;strokeColor=#ae4132;" vertex="1" parent="1">
          <mxGeometry x="1232" y="756" width="20" height="80" as="geometry" />
        </mxCell>
        <mxCell id="HXpb4lopX8qzr8Cd9YFV-68" value="" style="shape=curlyBracket;whiteSpace=wrap;html=1;rounded=1;flipH=1;strokeWidth=2;fontSize=15;fillColor=#ffe6cc;strokeColor=#d79b00;" vertex="1" parent="1">
          <mxGeometry x="1652" y="406" width="20" height="100" as="geometry" />
        </mxCell>
        <mxCell id="HXpb4lopX8qzr8Cd9YFV-69" style="edgeStyle=none;rounded=0;orthogonalLoop=1;jettySize=auto;html=1;strokeWidth=1;fontSize=15;exitX=0.25;exitY=1;exitDx=0;exitDy=0;" edge="1" parent="1" source="HXpb4lopX8qzr8Cd9YFV-43">
          <mxGeometry relative="1" as="geometry">
            <mxPoint x="1652" y="406" as="targetPoint" />
            <mxPoint x="1452" y="424.75" as="sourcePoint" />
          </mxGeometry>
        </mxCell>
        <mxCell id="HXpb4lopX8qzr8Cd9YFV-70" value="upstream tcp connection" style="edgeLabel;html=1;align=center;verticalAlign=middle;resizable=0;points=[];fontSize=15;fontColor=#99CCFF;" vertex="1" connectable="0" parent="HXpb4lopX8qzr8Cd9YFV-69">
          <mxGeometry x="-0.1059" y="3" relative="1" as="geometry">
            <mxPoint x="8" y="-7" as="offset" />
          </mxGeometry>
        </mxCell>
        <mxCell id="HXpb4lopX8qzr8Cd9YFV-71" value="Init State" style="text;html=1;strokeColor=none;fillColor=none;align=center;verticalAlign=middle;whiteSpace=wrap;rounded=0;fontSize=15;" vertex="1" parent="1">
          <mxGeometry x="1672" y="448.5" width="90" height="35" as="geometry" />
        </mxCell>
        <mxCell id="HXpb4lopX8qzr8Cd9YFV-73" value="" style="shape=curlyBracket;whiteSpace=wrap;html=1;rounded=1;fontSize=15;strokeWidth=2;fillColor=#ffe6cc;strokeColor=#d79b00;" vertex="1" parent="1">
          <mxGeometry x="1432" y="406" width="20" height="50" as="geometry" />
        </mxCell>
        <mxCell id="HXpb4lopX8qzr8Cd9YFV-75" value="Init State(C)" style="text;html=1;strokeColor=none;fillColor=none;align=center;verticalAlign=middle;whiteSpace=wrap;rounded=0;fontSize=15;" vertex="1" parent="1">
          <mxGeometry x="1342" y="421" width="90" height="35" as="geometry" />
        </mxCell>
        <mxCell id="HXpb4lopX8qzr8Cd9YFV-76" value="" style="shape=curlyBracket;whiteSpace=wrap;html=1;rounded=1;fontSize=15;strokeWidth=2;fillColor=#e1d5e7;strokeColor=#9673a6;" vertex="1" parent="1">
          <mxGeometry x="1432" y="456" width="20" height="260" as="geometry" />
        </mxCell>
        <mxCell id="HXpb4lopX8qzr8Cd9YFV-77" value="Continue State(C)" style="text;html=1;strokeColor=none;fillColor=none;align=center;verticalAlign=middle;whiteSpace=wrap;rounded=0;fontSize=15;" vertex="1" parent="1">
          <mxGeometry x="1302" y="566" width="130" height="36.25" as="geometry" />
        </mxCell>
        <mxCell id="HXpb4lopX8qzr8Cd9YFV-78" value="" style="shape=curlyBracket;whiteSpace=wrap;html=1;rounded=1;flipH=1;strokeWidth=2;fontSize=15;fillColor=#e1d5e7;strokeColor=#9673a6;" vertex="1" parent="1">
          <mxGeometry x="1652" y="506" width="20" height="170" as="geometry" />
        </mxCell>
        <mxCell id="HXpb4lopX8qzr8Cd9YFV-79" value="Continue State" style="text;html=1;strokeColor=none;fillColor=none;align=center;verticalAlign=middle;whiteSpace=wrap;rounded=0;fontSize=15;" vertex="1" parent="1">
          <mxGeometry x="1682" y="574.75" width="110" height="32.5" as="geometry" />
        </mxCell>
        <mxCell id="HXpb4lopX8qzr8Cd9YFV-80" value="" style="shape=curlyBracket;whiteSpace=wrap;html=1;rounded=1;fontSize=15;strokeWidth=2;fillColor=#fad9d5;strokeColor=#ae4132;" vertex="1" parent="1">
          <mxGeometry x="1432" y="716" width="20" height="120" as="geometry" />
        </mxCell>
        <mxCell id="HXpb4lopX8qzr8Cd9YFV-81" value="Complete(C)" style="text;html=1;strokeColor=none;fillColor=none;align=center;verticalAlign=middle;whiteSpace=wrap;rounded=0;fontSize=15;" vertex="1" parent="1">
          <mxGeometry x="1332" y="759.75" width="110" height="32.5" as="geometry" />
        </mxCell>
        <mxCell id="HXpb4lopX8qzr8Cd9YFV-82" value="" style="shape=curlyBracket;whiteSpace=wrap;html=1;rounded=1;flipH=1;strokeWidth=2;fontSize=15;fillColor=#fad9d5;strokeColor=#ae4132;" vertex="1" parent="1">
          <mxGeometry x="1452" y="716" width="20" height="120" as="geometry" />
        </mxCell>
        <mxCell id="HXpb4lopX8qzr8Cd9YFV-83" value="Complete(S)" style="text;html=1;strokeColor=none;fillColor=none;align=center;verticalAlign=middle;whiteSpace=wrap;rounded=0;fontSize=15;" vertex="1" parent="1">
          <mxGeometry x="1462" y="759.75" width="110" height="32.5" as="geometry" />
        </mxCell>
        <mxCell id="HXpb4lopX8qzr8Cd9YFV-84" value="" style="shape=curlyBracket;whiteSpace=wrap;html=1;rounded=1;flipH=1;strokeWidth=2;fontSize=15;fillColor=#fad9d5;strokeColor=#ae4132;" vertex="1" parent="1">
          <mxGeometry x="1652" y="676" width="20" height="160" as="geometry" />
        </mxCell>
        <mxCell id="HXpb4lopX8qzr8Cd9YFV-85" value="Complete" style="text;html=1;strokeColor=none;fillColor=none;align=center;verticalAlign=middle;whiteSpace=wrap;rounded=0;fontSize=15;" vertex="1" parent="1">
          <mxGeometry x="1662" y="739.75" width="110" height="32.5" as="geometry" />
        </mxCell>
        <mxCell id="HXpb4lopX8qzr8Cd9YFV-90" value="&lt;b&gt;5&lt;/b&gt;&lt;span style=&quot;color: rgba(0, 0, 0, 0); font-family: monospace; font-size: 0px; text-align: start; background-color: rgb(248, 249, 250);&quot;&gt;%3CmxGraphModel%3E%3Croot%3E%3CmxCell%20id%3D%220%22%2F%3E%3CmxCell%20id%3D%221%22%20parent%3D%220%22%2F%3E%3CmxCell%20id%3D%222%22%20value%3D%22%26lt%3Bb%26gt%3B4%26lt%3B%2Fb%26gt%3B%22%20style%3D%22edgeLabel%3Bhtml%3D1%3Balign%3Dcenter%3BverticalAlign%3Dmiddle%3Bresizable%3D0%3Bpoints%3D%5B%5D%3BfontSize%3D15%3BfontColor%3D%231A1A1A%3B%22%20vertex%3D%221%22%20connectable%3D%220%22%20parent%3D%221%22%3E%3CmxGeometry%20x%3D%22329.81317169115687%22%20y%3D%22376.4373656617686%22%20as%3D%22geometry%22%2F%3E%3C%2FmxCell%3E%3C%2Froot%3E%3C%2FmxGraphModel%3E&lt;/span&gt;" style="edgeLabel;html=1;align=center;verticalAlign=middle;resizable=0;points=[];fontSize=15;fontColor=#1A1A1A;" vertex="1" connectable="0" parent="1">
          <mxGeometry x="340.00317169115687" y="386.4373656617686" as="geometry">
            <mxPoint x="-13" y="25" as="offset" />
          </mxGeometry>
        </mxCell>
        <mxCell id="HXpb4lopX8qzr8Cd9YFV-91" value="&lt;b&gt;6&lt;/b&gt;" style="edgeLabel;html=1;align=center;verticalAlign=middle;resizable=0;points=[];fontSize=15;fontColor=#1A1A1A;" vertex="1" connectable="0" parent="1">
          <mxGeometry x="340.00317169115687" y="439.9973656617686" as="geometry">
            <mxPoint x="-13" y="25" as="offset" />
          </mxGeometry>
        </mxCell>
        <mxCell id="HXpb4lopX8qzr8Cd9YFV-93" value="&lt;b&gt;2&lt;/b&gt;&lt;span style=&quot;color: rgba(0, 0, 0, 0); font-family: monospace; font-size: 0px; text-align: start; background-color: rgb(248, 249, 250);&quot;&gt;%3CmxGraphModel%3E%3Croot%3E%3CmxCell%20id%3D%220%22%2F%3E%3CmxCell%20id%3D%221%22%20parent%3D%220%22%2F%3E%3CmxCell%20id%3D%222%22%20value%3D%22%26lt%3Bb%26gt%3B1%26lt%3B%2Fb%26gt%3B%22%20style%3D%22edgeLabel%3Bhtml%3D1%3Balign%3Dcenter%3BverticalAlign%3Dmiddle%3Bresizable%3D0%3Bpoints%3D%5B%5D%3BfontSize%3D15%3BfontColor%3D%231A1A1A%3B%22%20vertex%3D%221%22%20connectable%3D%220%22%20parent%3D%221%22%3E%3CmxGeometry%20x%3D%22975.456916001142%22%20y%3D%22241.80267618747666%22%20as%3D%22geometry%22%2F%3E%3C%2FmxCell%3E%3C%2Froot%3E%3C%2FmxGraphModel%3E&lt;/span&gt;" style="edgeLabel;html=1;align=center;verticalAlign=middle;resizable=0;points=[];fontSize=15;fontColor=#1A1A1A;" vertex="1" connectable="0" parent="1">
          <mxGeometry x="1357.456916001142" y="216.00267618747665" as="geometry">
            <mxPoint x="-9" y="33" as="offset" />
          </mxGeometry>
        </mxCell>
        <mxCell id="HXpb4lopX8qzr8Cd9YFV-94" value="&lt;b&gt;3&lt;/b&gt;" style="edgeLabel;html=1;align=center;verticalAlign=middle;resizable=0;points=[];fontSize=15;fontColor=#1A1A1A;" vertex="1" connectable="0" parent="1">
          <mxGeometry x="1357.456916001142" y="256.00267618747665" as="geometry">
            <mxPoint x="-9" y="33" as="offset" />
          </mxGeometry>
        </mxCell>
        <mxCell id="HXpb4lopX8qzr8Cd9YFV-95" value="&lt;b&gt;4&lt;/b&gt;" style="edgeLabel;html=1;align=center;verticalAlign=middle;resizable=0;points=[];fontSize=15;fontColor=#1A1A1A;" vertex="1" connectable="0" parent="1">
          <mxGeometry x="1357.456916001142" y="302.25267618747665" as="geometry">
            <mxPoint x="-9" y="33" as="offset" />
          </mxGeometry>
        </mxCell>
        <mxCell id="HXpb4lopX8qzr8Cd9YFV-96" value="&lt;b&gt;5&lt;/b&gt;" style="edgeLabel;html=1;align=center;verticalAlign=middle;resizable=0;points=[];fontSize=15;fontColor=#1A1A1A;" vertex="1" connectable="0" parent="1">
          <mxGeometry x="1357.456916001142" y="346.00267618747665" as="geometry">
            <mxPoint x="-9" y="33" as="offset" />
          </mxGeometry>
        </mxCell>
        <mxCell id="HXpb4lopX8qzr8Cd9YFV-97" value="&lt;b&gt;6&lt;/b&gt;" style="edgeLabel;html=1;align=center;verticalAlign=middle;resizable=0;points=[];fontSize=15;fontColor=#1A1A1A;" vertex="1" connectable="0" parent="1">
          <mxGeometry x="1561.996916001142" y="376.00267618747665" as="geometry">
            <mxPoint x="-9" y="33" as="offset" />
          </mxGeometry>
        </mxCell>
        <mxCell id="HXpb4lopX8qzr8Cd9YFV-98" value="&lt;b&gt;7&lt;/b&gt;" style="edgeLabel;html=1;align=center;verticalAlign=middle;resizable=0;points=[];fontSize=15;fontColor=#1A1A1A;" vertex="1" connectable="0" parent="1">
          <mxGeometry x="1561.996916001142" y="448.50267618747665" as="geometry">
            <mxPoint x="-9" y="33" as="offset" />
          </mxGeometry>
        </mxCell>
        <mxCell id="HXpb4lopX8qzr8Cd9YFV-99" value="&lt;b&gt;8&lt;/b&gt;" style="edgeLabel;html=1;align=center;verticalAlign=middle;resizable=0;points=[];fontSize=15;fontColor=#1A1A1A;" vertex="1" connectable="0" parent="1">
          <mxGeometry x="1561.996916001142" y="492.2526761874767" as="geometry">
            <mxPoint x="-9" y="33" as="offset" />
          </mxGeometry>
        </mxCell>
        <mxCell id="HXpb4lopX8qzr8Cd9YFV-100" value="&lt;b&gt;9&lt;/b&gt;" style="edgeLabel;html=1;align=center;verticalAlign=middle;resizable=0;points=[];fontSize=15;fontColor=#1A1A1A;" vertex="1" connectable="0" parent="1">
          <mxGeometry x="1561.996916001142" y="536.0026761874767" as="geometry">
            <mxPoint x="-9" y="33" as="offset" />
          </mxGeometry>
        </mxCell>
        <mxCell id="HXpb4lopX8qzr8Cd9YFV-101" value="&lt;b&gt;10&lt;/b&gt;" style="edgeLabel;html=1;align=center;verticalAlign=middle;resizable=0;points=[];fontSize=15;fontColor=#1A1A1A;" vertex="1" connectable="0" parent="1">
          <mxGeometry x="1561.996916001142" y="586.0026761874767" as="geometry">
            <mxPoint x="-9" y="33" as="offset" />
          </mxGeometry>
        </mxCell>
        <mxCell id="HXpb4lopX8qzr8Cd9YFV-102" value="&lt;b&gt;11&lt;/b&gt;" style="edgeLabel;html=1;align=center;verticalAlign=middle;resizable=0;points=[];fontSize=15;fontColor=#1A1A1A;" vertex="1" connectable="0" parent="1">
          <mxGeometry x="1561.996916001142" y="626.0026761874767" as="geometry">
            <mxPoint x="-9" y="33" as="offset" />
          </mxGeometry>
        </mxCell>
        <mxCell id="HXpb4lopX8qzr8Cd9YFV-103" value="&lt;b&gt;12&lt;/b&gt;" style="edgeLabel;html=1;align=center;verticalAlign=middle;resizable=0;points=[];fontSize=15;fontColor=#1A1A1A;" vertex="1" connectable="0" parent="1">
          <mxGeometry x="1561.996916001142" y="666.0026761874767" as="geometry">
            <mxPoint x="-9" y="33" as="offset" />
          </mxGeometry>
        </mxCell>
        <mxCell id="HXpb4lopX8qzr8Cd9YFV-104" value="&lt;b&gt;13&lt;/b&gt;" style="edgeLabel;html=1;align=center;verticalAlign=middle;resizable=0;points=[];fontSize=15;fontColor=#1A1A1A;" vertex="1" connectable="0" parent="1">
          <mxGeometry x="1357.456916001142" y="706.0026761874767" as="geometry">
            <mxPoint x="-9" y="33" as="offset" />
          </mxGeometry>
        </mxCell>
        <mxCell id="HXpb4lopX8qzr8Cd9YFV-105" style="edgeStyle=none;rounded=0;orthogonalLoop=1;jettySize=auto;html=1;strokeWidth=2;fontSize=15;startArrow=classic;startFill=1;fillColor=#d0cee2;strokeColor=#56517e;" edge="1" parent="1">
          <mxGeometry relative="1" as="geometry">
            <mxPoint x="1252" y="816" as="targetPoint" />
            <mxPoint x="1452" y="816" as="sourcePoint" />
          </mxGeometry>
        </mxCell>
        <mxCell id="HXpb4lopX8qzr8Cd9YFV-106" style="edgeStyle=none;rounded=0;orthogonalLoop=1;jettySize=auto;html=1;strokeWidth=2;fontSize=15;startArrow=classic;startFill=1;fillColor=#d0cee2;strokeColor=#56517e;" edge="1" parent="1">
          <mxGeometry relative="1" as="geometry">
            <mxPoint x="1452" y="816" as="targetPoint" />
            <mxPoint x="1652" y="816" as="sourcePoint" />
          </mxGeometry>
        </mxCell>
        <mxCell id="HXpb4lopX8qzr8Cd9YFV-107" value="DataFlow" style="text;html=1;strokeColor=none;fillColor=none;align=center;verticalAlign=middle;whiteSpace=wrap;rounded=0;strokeWidth=2;fontSize=15;" vertex="1" parent="1">
          <mxGeometry x="1327.46" y="806.5" width="60" height="30" as="geometry" />
        </mxCell>
        <mxCell id="HXpb4lopX8qzr8Cd9YFV-108" value="DataFlow" style="text;html=1;strokeColor=none;fillColor=none;align=center;verticalAlign=middle;whiteSpace=wrap;rounded=0;strokeWidth=2;fontSize=15;" vertex="1" parent="1">
          <mxGeometry x="1532" y="806.5" width="60" height="30" as="geometry" />
        </mxCell>
        <mxCell id="HXpb4lopX8qzr8Cd9YFV-109" value="&lt;b&gt;&lt;font style=&quot;font-size: 16px;&quot;&gt;S: 表示此时Mesh作为伪MongoServer和Client进行鉴权&lt;/font&gt;&lt;/b&gt;" style="text;html=1;strokeColor=none;fillColor=none;align=center;verticalAlign=middle;whiteSpace=wrap;rounded=0;strokeWidth=2;fontSize=15;fontColor=#1A1A1A;" vertex="1" parent="1">
          <mxGeometry x="1235" y="23" width="420" height="30" as="geometry" />
        </mxCell>
        <mxCell id="HXpb4lopX8qzr8Cd9YFV-110" value="&lt;b&gt;&lt;font style=&quot;font-size: 16px;&quot;&gt;C: 表示此时Mesh作为伪MongoClient和Server进行鉴权&lt;/font&gt;&lt;/b&gt;" style="text;html=1;strokeColor=none;fillColor=none;align=center;verticalAlign=middle;whiteSpace=wrap;rounded=0;strokeWidth=2;fontSize=15;fontColor=#1A1A1A;" vertex="1" parent="1">
          <mxGeometry x="1234" y="48" width="420" height="16" as="geometry" />
        </mxCell>
        <mxCell id="HXpb4lopX8qzr8Cd9YFV-111" value="Continue State" style="text;html=1;strokeColor=none;fillColor=none;align=center;verticalAlign=middle;whiteSpace=wrap;rounded=0;fontSize=15;" vertex="1" parent="1">
          <mxGeometry x="1115" y="449" width="110" height="32.5" as="geometry" />
        </mxCell>
      </root>
    </mxGraphModel>
  </diagram>
</mxfile>
